# xmcd
#
# Track frame offsets:
#	150
#	16910
#	35215
#	54357
#	75398
#	93244
#	106647
#	123239
#	139984
#	155994
#	171122
#	186451
#	203175
#	218027
#	235975
#	250266
#	277781
#
# Disc length: 3707 seconds
#
# Revision: 1
# Processed by: cddbd v1.5.2PL0 Copyright (c) Steve Scherf et al.
# Submitted via: audiograbber 1.83.01
#
DISCID=e70e7911
DTITLE=Various Artist - Chartbuster Karaoke 2010 Country Hits Vol2
DYEAR=2010
DGENRE=Country
TTITLE0=Rodney Atkins - Chasin' Girls
TTITLE1=Luke Bryan - Someone Else Callin You Baby
TTITLE2=Taylor Swift - Fearless
TTITLE3=Brad Paisley - Water
TTITLE4=Zac Brown Band With Alan Jackson - As She's Walking Away
TTITLE5=Eric Church - Hell On The Heart
TTITLE6=Katie Arminger - Leaving Home
TTITLE7=LoCash Cowboys - Here Comes Summer
TTITLE8=Bucky Covington - A Fathers Love
TTITLE9=Joe Nichols - The Shape I'M In
TTITLE10=Laura Bell Bundy - Drop On By
TTITLE11=Dierks Bentley - Draw Me A Map
TTITLE12=Thompson Square - Are You Gonna Kiss Me Or Not
TTITLE13=Emily West - Keith Urban - Blue Sky
TTITLE14=Randy Houser - I'M All About It
TTITLE15=Montgomery Gentry - While Your Still Young
TTITLE16=Data Track - Data Track
EXTD=
EXTT0=
EXTT1=
EXTT2=
EXTT3=
EXTT4=
EXTT5=
EXTT6=
EXTT7=
EXTT8=
EXTT9=
EXTT10=
EXTT11=
EXTT12=
EXTT13=
EXTT14=
EXTT15=
EXTT16=
PLAYORDER=
